<svg id="SvgjsSvg1001" width="288" height="288" xmlns="http://www.w3.org/2000/svg" version="1.1" xmlns:xlink="http://www.w3.org/1999/xlink" xmlns:svgjs="http://svgjs.com/svgjs"><path id="SvgjsPath1012" d="M 144,0 C 5,0 0,5 0,144 0,283 5,288 144,288 283,288 288,283 288,144 288,5 283,0 144,0 Z" fill="#ee2e5d" transform="matrix(0.7916,0,0,0.7916,30.009600000000006,30.009600000000006)"></path><defs id="SvgjsDefs1002"></defs><g id="SvgjsG1008" transform="matrix(0.46520000000000006,0,0,0.46520000000000006,77.01300446853637,77.01122040100097)"><svg xmlns="http://www.w3.org/2000/svg" width="288" height="288" data-name="Layer 1" viewBox="0 0 128 128"><path d="m113.206 106.265h-13.623v-86.28a1.749 1.749 0 0 0 -1.554-1.738l-46-5.192a1.75 1.75 0 0 0 -1.946 1.739v3.441h-19.916a1.75 1.75 0 0 0 -1.75 1.75v86.28h-13.623a1.75 1.75 0 1 0 0 3.5h35.289v3.441a1.75 1.75 0 0 0 1.75 1.75 1.61 1.61 0 0 0 .2-.011l45.9-5.18h15.276a1.75 1.75 0 0 0 0-3.5zm-81.289-84.53h18.166v4.5h-11.917a1.75 1.75 0 0 0 -1.75 1.75v78.28h-4.5zm8 84.53v-76.53h10.166v76.53zm13.666-89.513 42.5 4.8v84.9l-42.5 4.8z" fill="#ffffff" class="color000 svgShape"></path><path d="m61.125 58.792a5.208 5.208 0 1 0 5.208 5.208 5.214 5.214 0 0 0 -5.208-5.208zm0 6.916a1.708 1.708 0 1 1 1.708-1.708 1.71 1.71 0 0 1 -1.708 1.708z" fill="#ffffff" class="color000 svgShape"></path></svg></g></svg>