<svg id="SvgjsSvg1035" width="288" height="288" xmlns="http://www.w3.org/2000/svg" version="1.1" xmlns:xlink="http://www.w3.org/1999/xlink" xmlns:svgjs="http://svgjs.com/svgjs"><path id="SvgjsPath1040" d="M 144,0 C 5,0 0,5 0,144 0,283 5,288 144,288 283,288 288,283 288,144 288,5 283,0 144,0 Z" fill="#261c3b" transform="matrix(0.7916,0,0,0.7916,30.009600000000006,30.009600000000006)"></path><defs id="SvgjsDefs1036"></defs><g id="SvgjsG1037" transform="matrix(0.46520000000000006,0,0,0.46520000000000006,77.01147745361327,77.09763700103758)"><svg xmlns="http://www.w3.org/2000/svg" width="288" height="288" viewBox="0 -47 354.987 354"><path d="M6.828125 102.894531c-3.773437 0-6.828125 3.054688-6.828125 6.824219v34.132812c0 3.773438 3.054688 6.828126 6.828125 6.828126 3.769531 0 6.824219-3.054688 6.824219-6.828126v-34.132812c0-3.769531-3.054688-6.824219-6.824219-6.824219zm0 0M40.984375 74.941406c-3.769531 0-6.828125 3.058594-6.828125 6.828125v94.515625c0 3.773438 3.058594 6.828125 6.828125 6.828125s6.828125-3.054687 6.828125-6.828125v-94.515625c0-3.769531-3.058594-6.828125-6.828125-6.828125zm0 0M75.09375 27.800781c-3.769531 0-6.828125 3.054688-6.828125 6.824219v191.148438c0 3.769531 3.058594 6.828124 6.828125 6.828124s6.828125-3.058593 6.828125-6.828124v-191.148438c0-3.769531-3.058594-6.824219-6.828125-6.824219zm0 0M109.226562 61.933594c-3.769531 0-6.828124 3.054687-6.828124 6.828125v116.050781c0 3.769531 3.058593 6.828125 6.828124 6.828125 3.769532 0 6.828126-3.058594 6.828126-6.828125v-116.050781c0-3.773438-3.058594-6.828125-6.828126-6.828125zm0 0M212.292969 45.40625c-3.769531 0-6.824219 3.054688-6.824219 6.828125v153.589844c0 3.769531 3.054688 6.824219 6.824219 6.824219s6.828125-3.054688 6.828125-6.824219v-153.589844c0-3.773437-3.058594-6.828125-6.828125-6.828125zm0 0M279.894531 55.105469c-3.769531 0-6.828125 3.058593-6.828125 6.828125v136.53125c0 3.773437 3.058594 6.828125 6.828125 6.828125s6.824219-3.054688 6.824219-6.828125v-136.53125c0-3.769532-3.054688-6.828125-6.824219-6.828125zm0 0M314.027344 89.238281c-3.769532 0-6.828125 3.058594-6.828125 6.828125v68.265625c0 3.769531 3.058593 6.828125 6.828125 6.828125 3.769531 0 6.824218-3.058594 6.824218-6.828125v-68.265625c0-3.769531-3.054687-6.828125-6.824218-6.828125zm0 0M245.761719.492188c-3.773438 0-6.828125 3.058593-6.828125 6.828124v245.757813c0 3.773437 3.054687 6.828125 6.828125 6.828125 3.769531 0 6.824219-3.054688 6.824219-6.828125v-245.757813c0-3.769531-3.054688-6.828124-6.824219-6.828124zm0 0M143.359375 109.71875c-3.769531 0-6.824219 3.058594-6.824219 6.828125v27.304687c0 3.773438 3.054688 6.828126 6.824219 6.828126s6.828125-3.054688 6.828125-6.828126v-27.304687c0-3.769531-3.058594-6.828125-6.828125-6.828125zm0 0M348.160156 107.433594c-3.769531 0-6.828125 3.054687-6.828125 6.824218v29.539063c0 3.769531 3.058594 6.828125 6.828125 6.828125 3.769532 0 6.828125-3.058594 6.828125-6.828125v-29.539063c0-3.769531-3.058593-6.824218-6.828125-6.824218zm0 0M176.851562 94.417969c-3.773437 0-6.828124 3.054687-6.828124 6.824219v55.570312c0 3.769531 3.054687 6.828125 6.828124 6.828125 3.769532 0 6.824219-3.058594 6.824219-6.828125v-55.570312c0-3.769532-3.054687-6.824219-6.824219-6.824219zm0 0" fill="#3bc771" class="color000 svgShape"></path></svg></g></svg>