<svg id="SvgjsSvg1022" width="288" height="288" xmlns="http://www.w3.org/2000/svg" version="1.1" xmlns:xlink="http://www.w3.org/1999/xlink" xmlns:svgjs="http://svgjs.com/svgjs"><path id="SvgjsPath1027" d="M 144,0 C 5,0 0,5 0,144 0,283 5,288 144,288 283,288 288,283 288,144 288,5 283,0 144,0 Z" fill="#261c3b" transform="matrix(0.7916,0,0,0.7916,30.009600000000006,30.009600000000006)"></path><defs id="SvgjsDefs1023"></defs><g id="SvgjsG1024" transform="matrix(0.46520000000000006,0,0,0.46520000000000006,77.01119999999999,77.0112022951126)"><svg xmlns="http://www.w3.org/2000/svg" enable-background="new 0 0 512 512" viewBox="0 0 512 512" width="288" height="288"><path d="M490.667 405.333h-56.811C424.619 374.592 396.373 352 362.667 352s-61.931 22.592-71.189 53.333H21.333C9.557 405.333 0 414.891 0 426.667S9.557 448 21.333 448h270.144c9.237 30.741 37.483 53.333 71.189 53.333s61.931-22.592 71.189-53.333h56.811c11.797 0 21.333-9.557 21.333-21.333S502.464 405.333 490.667 405.333zM362.667 458.667c-17.643 0-32-14.357-32-32s14.357-32 32-32 32 14.357 32 32S380.309 458.667 362.667 458.667zM490.667 64h-56.811c-9.259-30.741-37.483-53.333-71.189-53.333S300.736 33.259 291.477 64H21.333C9.557 64 0 73.557 0 85.333s9.557 21.333 21.333 21.333h270.144C300.736 137.408 328.96 160 362.667 160s61.931-22.592 71.189-53.333h56.811c11.797 0 21.333-9.557 21.333-21.333S502.464 64 490.667 64zM362.667 117.333c-17.643 0-32-14.357-32-32 0-17.643 14.357-32 32-32s32 14.357 32 32C394.667 102.976 380.309 117.333 362.667 117.333zM490.667 234.667H220.523c-9.259-30.741-37.483-53.333-71.189-53.333s-61.931 22.592-71.189 53.333H21.333C9.557 234.667 0 244.224 0 256c0 11.776 9.557 21.333 21.333 21.333h56.811c9.259 30.741 37.483 53.333 71.189 53.333s61.931-22.592 71.189-53.333h270.144c11.797 0 21.333-9.557 21.333-21.333C512 244.224 502.464 234.667 490.667 234.667zM149.333 288c-17.643 0-32-14.357-32-32s14.357-32 32-32c17.643 0 32 14.357 32 32S166.976 288 149.333 288z" fill="#918e9e" class="color000 svgShape"></path></svg></g></svg>