<svg xmlns="http://www.w3.org/2000/svg" width="20" height="20" viewBox="0 0 20 20">
  <path id="Icon" d="M1418.956,5450.636a9.515,9.515,0,0,0-6.119-6.963,5.935,5.935,0,0,0,2.216-5.6,6.136,6.136,0,0,0-12.178.93,5.94,5.94,0,0,0,2.289,4.673,9.517,9.517,0,0,0-6.12,6.963,2,2,0,0,0,2.01,2.364h15.892a2,2,0,0,0,2.01-2.364M1404.917,5439a4.084,4.084,0,1,1,4.083,4,4.047,4.047,0,0,1-4.083-4m10.646,12h-13.124a1,1,0,0,1-.962-1.338,8.4,8.4,0,0,1,15.048,0,1,1,0,0,1-.962,1.338" transform="translate(-1399 -5433)" fill="#9ea0a5"/>
</svg>
